<svg width="170" height="41" viewBox="0 0 170 41" fill="none" xmlns="http://www.w3.org/2000/svg">
<path d="M53 26.16H56.912V13.872H53V26.16ZM53 12.168H56.912V9H53V12.168Z" fill="black"/>
<path d="M58.6104 30.216H62.5223V24.888H62.5704C63.3384 25.92 64.4663 26.544 66.0503 26.544C69.2663 26.544 71.4024 24 71.4024 20.016C71.4024 16.32 69.4103 13.512 66.1463 13.512C64.4663 13.512 63.2663 14.256 62.4263 15.36H62.3543V13.872H58.6104V30.216ZM65.0424 23.52C63.3624 23.52 62.4024 22.152 62.4024 20.16C62.4024 18.168 63.2663 16.656 64.9703 16.656C66.6503 16.656 67.4423 18.048 67.4423 20.16C67.4423 22.248 66.5304 23.52 65.0424 23.52Z" fill="black"/>
<path d="M77.7714 26.544C80.9874 26.544 83.3634 25.152 83.3634 22.464C83.3634 19.32 80.8194 18.768 78.6594 18.408C77.0994 18.12 75.7074 18 75.7074 17.136C75.7074 16.368 76.4514 16.008 77.4114 16.008C78.4914 16.008 79.2354 16.344 79.3794 17.448H82.9794C82.7874 15.024 80.9154 13.512 77.4354 13.512C74.5314 13.512 72.1314 14.856 72.1314 17.448C72.1314 20.328 74.4114 20.904 76.5474 21.264C78.1794 21.552 79.6674 21.672 79.6674 22.776C79.6674 23.568 78.9234 24 77.7474 24C76.4514 24 75.6354 23.4 75.4914 22.176H71.7954C71.9154 24.888 74.1714 26.544 77.7714 26.544Z" fill="black"/>
<path d="M88.6774 26.5199C90.3814 26.5199 91.4614 25.8479 92.3494 24.6479H92.4214V26.1599H96.1654V13.8719H92.2534V20.7359C92.2534 22.1999 91.4374 23.2079 90.0934 23.2079C88.8454 23.2079 88.2454 22.4639 88.2454 21.1199V13.8719H84.3574V21.9359C84.3574 24.6719 85.8454 26.5199 88.6774 26.5199Z" fill="black"/>
<path d="M97.8662 26.16H101.778V19.272C101.778 17.808 102.498 16.776 103.722 16.776C104.898 16.776 105.45 17.544 105.45 18.864V26.16H109.362V19.272C109.362 17.808 110.058 16.776 111.306 16.776C112.482 16.776 113.034 17.544 113.034 18.864V26.16H116.946V18.168C116.946 15.408 115.554 13.512 112.77 13.512C111.186 13.512 109.866 14.184 108.906 15.672H108.858C108.234 14.352 107.01 13.512 105.402 13.512C103.626 13.512 102.45 14.352 101.682 15.624H101.61V13.872H97.8662V26.16Z" fill="black"/>
<path fill-rule="evenodd" clip-rule="evenodd" d="M20.6841 40.138C31.7298 40.138 40.6841 31.1837 40.6841 20.138C40.6841 9.09234 31.7298 0.138031 20.6841 0.138031C9.63837 0.138031 0.684082 9.09234 0.684082 20.138C0.684082 31.1837 9.63837 40.138 20.6841 40.138ZM26.9234 9.45487C27.2271 8.37608 26.1802 7.73816 25.2241 8.41933L11.8772 17.9276C10.8403 18.6663 11.0034 20.138 12.1222 20.138H15.6368V20.1108H22.4866L16.9053 22.0801L14.4448 30.8212C14.1411 31.9 15.1879 32.5379 16.1441 31.8567L29.491 22.3485C30.5279 21.6098 30.3647 20.138 29.246 20.138H23.9162L26.9234 9.45487Z" fill="#3795BD"/>
</svg>
